<?xml version="1.0" encoding="UTF-8"?>
<svg id="Layer_1" xmlns="http://www.w3.org/2000/svg" version="1.1" viewBox="0 0 100 125">
  <!-- Generator: Adobe Illustrator 29.1.0, SVG Export Plug-In . SVG Version: 2.1.0 Build 142)  -->
  <path d="M23.8,56.3v-12.6c0-6,4.9-10.8,10.8-10.8h26v-16.2c0-2.4-2-4.4-4.4-4.4H6.9c-2.4,0-4.4,2-4.4,4.4v66.6c0,2.4,2,4.4,4.4,4.4h49.5c2.4,0,4.4-2,4.4-4.4v-16.2h-26c-6.1,0-11-4.9-11-10.8Z"/>
  <path d="M96.3,47.5l-22.9-18.5c-2.1-1.7-5.2-.2-5.2,2.5v9.1h-33.6c-1.8,0-3.2,1.4-3.2,3.2v12.6c0,1.8,1.4,3.2,3.2,3.2h33.6v9.1c0,2.7,3.1,4.1,5.2,2.5l22.9-18.6c1.6-1.4,1.6-3.8,0-5.1Z"/>
</svg>