<svg width="20" height="23" viewBox="0 0 20 23" fill="none" xmlns="http://www.w3.org/2000/svg">
<path d="M5.22 11.5787C5.22 11.1175 5.6025 10.735 6.06375 10.735H12.2288V1.2175C12.2175 0.6775 11.79 0.25 11.25 0.25C4.62375 0.25 0 4.87375 0 11.5C0 18.1262 4.62375 22.75 11.25 22.75C11.7788 22.75 12.2175 22.3225 12.2175 21.7825V12.4113H6.06375C5.59125 12.4225 5.22 12.04 5.22 11.5787Z" fill="#1A1A1A"/>
<path d="M19.4625 10.9825L16.2675 7.77624C15.9413 7.44999 15.4013 7.44999 15.075 7.77624C14.7488 8.10249 14.7488 8.64249 15.075 8.96874L16.83 10.7237H12.2175V12.4112H16.8188L15.0638 14.1662C14.7375 14.4925 14.7375 15.0325 15.0638 15.3587C15.2325 15.5275 15.4463 15.6062 15.66 15.6062C15.8738 15.6062 16.0875 15.5275 16.2563 15.3587L19.4513 12.1525C19.7888 11.8375 19.7888 11.3087 19.4625 10.9825Z" fill="#1F2937"/>
</svg>
