<svg width="48" height="48" viewBox="0 0 48 48" fill="none" xmlns="http://www.w3.org/2000/svg">
<g opacity="0.2" filter="url(#filter0_f_62_333)">
<circle cx="27" cy="26" r="12" fill="#3A23FF"/>
</g>
<g filter="url(#filter1_d_62_333)">
<circle cx="24" cy="22" r="15" fill="#3D7BFF"/>
</g>
<path d="M24.2909 21.4114C24.2227 21.4046 24.1409 21.4046 24.0659 21.4114C22.4432 21.3568 21.1545 20.0273 21.1545 18.3909C21.1545 16.7205 22.5045 15.3636 24.1818 15.3636C25.8523 15.3636 27.2091 16.7205 27.2091 18.3909C27.2023 20.0273 25.9136 21.3568 24.2909 21.4114Z" stroke="white" stroke-width="1.3" stroke-linecap="round" stroke-linejoin="round"/>
<path d="M20.8818 23.9273C19.2318 25.0318 19.2318 26.8318 20.8818 27.9295C22.7568 29.1841 25.8318 29.1841 27.7068 27.9295C29.3568 26.825 29.3568 25.025 27.7068 23.9273C25.8387 22.6795 22.7637 22.6795 20.8818 23.9273Z" stroke="white" stroke-width="1.3" stroke-linecap="round" stroke-linejoin="round"/>
<defs>
<filter id="filter0_f_62_333" x="6" y="5" width="42" height="42" filterUnits="userSpaceOnUse" color-interpolation-filters="sRGB">
<feFlood flood-opacity="0" result="BackgroundImageFix"/>
<feBlend mode="normal" in="SourceGraphic" in2="BackgroundImageFix" result="shape"/>
<feGaussianBlur stdDeviation="4.5" result="effect1_foregroundBlur_62_333"/>
</filter>
<filter id="filter1_d_62_333" x="0" y="0" width="48" height="48" filterUnits="userSpaceOnUse" color-interpolation-filters="sRGB">
<feFlood flood-opacity="0" result="BackgroundImageFix"/>
<feColorMatrix in="SourceAlpha" type="matrix" values="0 0 0 0 0 0 0 0 0 0 0 0 0 0 0 0 0 0 127 0" result="hardAlpha"/>
<feOffset dy="2"/>
<feGaussianBlur stdDeviation="4.5"/>
<feComposite in2="hardAlpha" operator="out"/>
<feColorMatrix type="matrix" values="0 0 0 0 0.0705882 0 0 0 0 0.262745 0 0 0 0 0.756863 0 0 0 0.1 0"/>
<feBlend mode="normal" in2="BackgroundImageFix" result="effect1_dropShadow_62_333"/>
<feBlend mode="normal" in="SourceGraphic" in2="effect1_dropShadow_62_333" result="shape"/>
</filter>
</defs>
</svg>
