<?xml version="1.0" encoding="UTF-8"?>
<svg id="Layer_1" xmlns="http://www.w3.org/2000/svg" version="1.1" viewBox="0 0 32 40">
  <!-- Generator: Adobe Illustrator 29.1.0, SVG Export Plug-In . SVG Version: 2.1.0 Build 142)  -->
  <path d="M16,14.5v3c0,1.7,1.3,3,3,3h7c.3,0,.7,0,1-.2v2.2c0,1.7-1.3,3-3,3H6c-1.7,0-3-1.3-3-3v-13c0-1.7,1.3-3,3-3h18c1.7,0,3,1.3,3,3v2.2c-.3-.1-.7-.2-1-.2h-7c-1.7,0-3,1.3-3,3Z"/>
  <path d="M26,13.5h-7c-.6,0-1,.4-1,1v3c0,.6.4,1,1,1h7c.6,0,1-.4,1-1v-3c0-.6-.4-1-1-1ZM21.5,17.5c-.8,0-1.5-.7-1.5-1.5s.7-1.5,1.5-1.5,1.5.7,1.5,1.5-.7,1.5-1.5,1.5Z"/>
</svg>